<svg width="322" height="201" viewBox="0 0 322 201" fill="none" xmlns="http://www.w3.org/2000/svg">
<path d="M313.073 151.86C308.375 151.86 304.567 148.052 304.567 143.354V136.926C300.535 141.773 295.872 145.638 290.58 148.52C285.287 151.402 279.68 152.843 273.757 152.843C267.205 152.843 261.03 151.598 255.234 149.109C249.563 146.62 244.523 143.083 240.112 138.498C235.702 134.044 232.237 128.804 229.716 122.777C227.322 116.62 226.125 110.201 226.125 103.52C226.125 96.8384 227.322 90.4847 229.716 84.4585C232.237 78.3013 235.702 72.9301 240.112 68.345C244.523 63.7598 249.563 60.2227 255.234 57.7336C261.03 55.2445 267.205 54 273.757 54C279.806 54 285.476 55.31 290.769 57.9301C296.187 60.5502 300.787 64.2183 304.567 68.9345V64.4708C304.567 59.7732 308.375 55.9651 313.073 55.9651C317.771 55.9651 321.579 59.7732 321.579 64.4708V143.354C321.579 148.052 317.771 151.86 313.073 151.86ZM273.757 71.4891C269.599 71.4891 265.567 72.3406 261.66 74.0437C257.88 75.6157 254.604 77.8428 251.831 80.7249C249.059 83.607 246.854 87.0786 245.216 91.1397C243.704 95.0699 242.948 99.1965 242.948 103.52C242.948 107.843 243.704 111.969 245.216 115.9C246.854 119.83 249.059 123.236 251.831 126.118C254.604 129 257.88 131.293 261.66 132.996C265.567 134.568 269.599 135.354 273.757 135.354C277.916 135.354 281.885 134.568 285.665 132.996C289.446 131.293 292.722 129 295.494 126.118C298.267 123.236 300.409 119.83 301.921 115.9C303.559 111.969 304.378 107.843 304.378 103.52C304.378 99.1965 303.559 95.0699 301.921 91.1397C300.409 87.0786 298.267 83.607 295.494 80.7249C292.722 77.8428 289.446 75.6157 285.665 74.0437C281.885 72.3406 277.916 71.4891 273.757 71.4891Z" fill="#FFE682"/>
<path d="M220.519 83.9081C218.162 83.0118 216.556 80.8883 215.569 78.5674C215.156 77.5948 214.652 76.6474 214.057 75.725C211.466 71.3659 206.352 69.1864 198.716 69.1864C194.625 69.1864 191.489 69.6487 189.307 70.5734C186.443 71.6301 184.261 73.1492 182.761 75.1306C181.398 77.112 180.716 79.2916 180.716 81.6693C180.716 84.5753 181.807 87.2172 183.989 89.5949C186.307 92.1047 190.057 93.4256 195.239 93.5577C204.375 93.954 211.739 95.0108 217.33 96.728C223.057 98.4452 227.42 101.417 230.42 105.644C233.557 109.871 235.125 115.816 235.125 123.477C235.125 131.271 232.057 138.007 225.92 143.687C222.92 146.461 219.375 148.707 215.284 150.424C211.33 152.141 207.17 153 202.807 153H199.739C188.83 153 180.034 149.962 173.352 143.886C169.514 140.446 166.689 136.026 164.876 130.625C163.533 126.622 166.401 122.641 170.546 121.835L171.25 121.698C173.433 121.273 175.689 121.416 177.801 122.113C179.987 122.835 181.523 124.711 182.479 126.806C183.215 128.419 184.195 129.819 185.42 131.006C188.557 133.912 192.92 135.365 198.511 135.365C200.011 135.365 201.102 135.299 201.784 135.167C206.557 134.903 210.307 133.648 213.034 131.403C215.761 129.025 217.125 126.119 217.125 122.684C217.125 117.929 215.625 114.825 212.625 113.372C209.625 111.919 203.83 111.192 195.239 111.192C184.466 111.192 176.216 107.89 170.489 101.285C165.852 96.2657 163.534 89.9251 163.534 82.2637C163.534 80.5465 163.602 79.2255 163.739 78.3009C164.83 69.7148 168.443 63.1761 174.58 58.6849C180.852 54.0616 189.102 51.75 199.33 51.75C206.83 51.75 213.375 53.3351 218.966 56.5054C222.92 58.8831 226.33 62.1854 229.193 66.4124C231.257 69.6105 232.774 73.4134 233.744 77.8213C234.318 80.4278 232.821 82.9914 230.37 84.0468C227.516 85.2753 224.297 85.3447 221.393 84.2404L220.519 83.9081Z" fill="#FFD53C"/>
<path d="M30.9573 128.562V133.272C30.9573 144.896 18.7487 152.477 8.33032 147.321C6.59094 146.46 4.99813 145.306 3.82255 143.762C2.47167 141.987 1.125 139.849 1.125 138.519V75.5966C1.125 63.4201 10.3789 53.2377 22.5 52.0769C31.0218 52.0769 39.0703 55.9955 44.3262 62.7035L53.8277 74.8301C55.631 77.1316 59.1159 77.1292 60.916 74.8252L70.7301 62.2638C75.7532 55.8345 83.4575 52.0769 91.6163 52.0769C98.7229 52.0769 104.484 57.8379 104.484 64.9445V80.7341V97.1097V138.426C104.484 139.042 104.422 139.657 104.298 140.261L103.73 143.038C103.457 144.376 102.519 145.481 101.244 145.969C100.783 146.146 100.293 146.235 99.7989 146.233L86.7636 146.178C77.8438 146.558 64.0688 146.577 54.5512 146.2C53.0739 146.141 52.3681 144.386 53.3762 143.304C53.5034 143.168 53.6516 143.052 53.8151 142.963L66.1922 136.184C79.4546 128.921 89.6329 117.094 94.8395 102.897C96.2435 99.0688 96.962 95.0229 96.962 90.9452V84.0036C96.962 81.8505 96.4872 79.7238 95.5715 77.775L95.3155 77.2302C93.0577 72.4256 88.2271 69.3582 82.9185 69.3582C80.163 69.3582 77.4716 70.1893 75.1958 71.7428L70.2168 75.1418L59.0424 85.1343C58.1199 85.9591 56.7045 85.8843 55.8742 84.9667L47.5515 75.7694C43.8575 71.6872 38.609 69.3582 33.1035 69.3582H32.2577C29.2727 69.3582 26.3441 70.171 23.7861 71.7094C16.5623 76.0538 13.7957 85.1587 17.3813 92.7877L21.0132 100.515L29.5821 121.543C30.4903 123.771 30.9573 126.155 30.9573 128.562Z" fill="#FFD53C" stroke="#FFD53C" stroke-width="2.25"/>
<path d="M129.892 200.25C122.709 200.25 116.03 198.351 109.856 194.551C105.065 191.542 100.748 187.464 96.9057 182.318C94.9983 179.763 94.9871 176.281 96.5697 173.513C98.0823 170.868 100.915 169.202 103.962 169.202C106.919 169.202 109.594 170.798 111.464 173.088C113.471 175.545 115.707 177.525 118.173 179.027C121.827 181.386 125.733 182.565 129.892 182.565C136.57 182.565 142.367 180.01 147.281 174.901C149.55 172.543 151.251 169.792 152.385 166.648C153.645 163.503 154.275 160.163 154.275 156.626V149.748C151.377 152.892 147.722 155.447 143.312 157.412C138.902 159.246 134.428 160.163 129.892 160.163C124.347 160.163 119.118 159.115 114.203 157.019C109.289 154.792 104.941 151.713 101.161 147.783C97.2547 143.853 94.2304 139.333 92.0882 134.224C89.946 128.984 87.6585 120.514 87.6585 114.75L90.4532 109.8C92.3888 106.372 93.7684 102.658 94.5405 98.7976C95.2617 95.1915 95.625 91.5229 95.625 87.8453V87.7501V83.798C95.625 82.6869 95.4887 81.5801 95.2193 80.5023C94.7453 78.6065 93.8681 76.8352 92.6473 75.3093L92.5876 75.2346C90.8986 73.1234 88.6354 71.5453 86.0704 70.6903L85.0435 70.348C83.9228 69.9744 83.0625 69.0662 82.7501 67.9269L82.428 66.7523C78.9576 54.0956 95.83 46.2724 103.248 57.0986L104.694 59.2087C105.382 60.2128 105.75 61.4015 105.75 62.6187V115.875C105.75 120.46 106.58 125.447 108.722 129.508C110.99 133.438 113.951 136.582 117.606 138.94C121.386 141.298 125.481 142.477 129.892 142.477C134.302 142.477 138.398 141.364 142.178 139.137C145.958 136.779 148.919 133.634 151.062 129.704C153.204 125.643 154.275 121.255 154.275 116.538V62.5799C154.275 61.0395 154.98 59.5836 156.188 58.6281C159.665 55.8786 164.53 55.7242 168.175 58.2477L168.591 58.5363C170.043 59.5413 170.909 61.1943 170.909 62.9596V156.626C170.909 162.521 169.837 168.154 167.695 173.525C165.679 178.896 162.781 183.547 159 187.477C155.094 191.538 150.621 194.682 145.58 196.91C140.666 199.137 135.436 200.25 129.892 200.25Z" fill="#FFE682"/>
</svg>
